# xmcd
#
# Track frame offsets: 
#        150
#        28794
#        42037
#        61090
#        93429
#        128680
#        157990
#        178400
#        198393
#        250225
#        282477
#
# Disc length: 4088 seconds
#
# Revision: 3
# Processed by: cddbd v1.5.2PL0 Copyright (c) Steve Scherf et al.
# Submitted via: ExactAudioCopy v0.95b4
#
DISCID=950ff60b
DTITLE=Gary Moore - Live At Montreux
DYEAR=2001
DGENRE=Blues
TTITLE0=Midnight Blues
TTITLE1=Moving On
TTITLE2=All Your Love
TTITLE3=Still Got The Blues
TTITLE4=Out In The Fields
TTITLE5=Over The Hills And Far Away
TTITLE6=Oh Pretty Woman
TTITLE7=Too Tired
TTITLE8=Parisienne Walkways
TTITLE9=Stormy Monday
TTITLE10=Walking By Myself
EXTD=
EXTT0=
EXTT1=
EXTT2=
EXTT3=
EXTT4=
EXTT5=
EXTT6=
EXTT7=
EXTT8=
EXTT9=
EXTT10=
PLAYORDER=
